<?xml version="1.0" encoding="iso-8859-1"?>
<!-- Generator: Adobe Illustrator 19.0.0, SVG Export Plug-In . SVG Version: 6.00 Build 0)  -->
<svg version="1.1" id="Layer_1" xmlns="http://www.w3.org/2000/svg" xmlns:xlink="http://www.w3.org/1999/xlink" x="0px" y="0px"
	 viewBox="0 0 480 480" style="enable-background:new 0 0 480 480;" xml:space="preserve">
<g>
	<g>
		<g>
			<path d="M144,175.885h-32c-4.424,0-8,3.576-8,8s3.576,8,8,8h32c4.424,0,8-3.576,8-8S148.424,175.885,144,175.885z"/>
			<path d="M472,159.885c-4.424,0-8,3.576-8,8v10.32l-164.872-57.704l3.656-61.08c0.896-15.104-6.96-29.6-20.064-37.112
				L264.224,8.245c-14.264-10.84-34.168-10.84-48.44,0L197.28,22.317c-13.104,7.504-20.96,22.008-20.064,37.112l3.656,61.08
				L16,178.205v-10.32c0-4.424-3.576-8-8-8s-8,3.576-8,8v21.6v2.4v24c0,4.424,3.576,8,8,8h51.056l9.368,18.736
				c4.088,8.176,12.32,13.264,21.464,13.264h36.216c9.152,0,17.376-5.088,21.472-13.264l9.368-18.736h30.12l9.152,152.864
				L96,412.533v-12.648c0-4.424-3.576-8-8-8s-8,3.576-8,8v24v16c0,2.208,0.912,4.328,2.528,5.84c1.496,1.392,3.448,2.16,5.472,2.16
				c0.176,0,0.352-0.008,0.528-0.016l116.96-7.8c0.944,1.024,1.976,1.96,3.08,2.808l8.04,21.432
				c3.496,9.32,12.528,15.576,22.48,15.576h1.832c9.952,0,18.984-6.256,22.472-15.568l8.04-21.44
				c1.112-0.848,2.136-1.776,3.08-2.808l116.96,7.8c0.176,0.008,0.352,0.016,0.528,0.016c2.024,0,3.976-0.768,5.472-2.16
				c1.616-1.512,2.528-3.632,2.528-5.84v-16v-24c0-4.424-3.576-8-8-8s-8,3.576-8,8v12.648l-100.208-35.792l9.144-152.856h30.12
				l9.368,18.736c4.088,8.176,12.32,13.264,21.464,13.264h36.216c9.152,0,17.376-5.088,21.472-13.264l9.368-18.736H472
				c4.424,0,8-3.576,8-8v-24v-2.4v-21.6C480,163.461,476.424,159.885,472,159.885z M133.264,235.461
				c-1.36,2.728-4.096,4.424-7.152,4.424H89.896c-3.056,0-5.8-1.696-7.16-4.424l-5.792-11.576h62.112L133.264,235.461z M152,207.885
				H64H16v-12.72l160.96-56.344l6.28,69.064H152z M96,431.333v-1.808l97.68-34.888l4.976,29.848L96,431.333z M248.4,458.701
				c-1.168,3.096-4.176,5.184-7.488,5.184h-1.832c-3.312,0-6.32-2.088-7.488-5.192l-4.048-10.808h24.904L248.4,458.701z
				 M286.32,394.645l97.68,34.88v1.808l-102.656-6.84L286.32,394.645z M286.8,58.477l-21.896,365.896
				c-0.24,4.208-3.744,7.512-7.976,7.512h-33.856c-4.224,0-7.736-3.304-7.984-7.52L193.184,58.469
				c-0.544-9.184,4.312-18,12.368-22.448c0.344-0.184,0.664-0.4,0.976-0.632l18.936-14.4c4.28-3.248,9.408-4.88,14.528-4.88
				s10.256,1.632,14.528,4.88l18.936,14.4c0.312,0.232,0.632,0.448,0.976,0.632C282.496,40.477,287.344,49.285,286.8,58.477z
				 M397.264,235.461c-1.36,2.728-4.096,4.424-7.152,4.424h-36.216c-3.056,0-5.8-1.696-7.16-4.424l-5.792-11.576h62.112
				L397.264,235.461z M464,207.885h-48h-88h-31.24l6.28-69.064L464,195.165V207.885z"/>
			<path d="M336,191.885h32c4.424,0,8-3.576,8-8s-3.576-8-8-8h-32c-4.424,0-8,3.576-8,8S331.576,191.885,336,191.885z"/>
			<path d="M268.44,57.229l-24-16c-2.688-1.8-6.184-1.8-8.872,0l-24,16c-3.68,2.456-4.672,7.416-2.216,11.096
				c2.44,3.664,7.392,4.656,11.088,2.216L240,57.501l19.56,13.04c1.368,0.904,2.912,1.344,4.432,1.344
				c2.584,0,5.128-1.248,6.664-3.56C273.112,64.645,272.12,59.685,268.44,57.229z"/>
			<path d="M240,111.885c-4.424,0-8,3.576-8,8v104c0,4.424,3.576,8,8,8s8-3.576,8-8v-104C248,115.461,244.424,111.885,240,111.885z"
				/>
			<path d="M240,263.885c-4.424,0-8,3.576-8,8v16c0,4.424,3.576,8,8,8s8-3.576,8-8v-16C248,267.461,244.424,263.885,240,263.885z"/>
			<path d="M376,279.885c0-4.424-3.576-8-8-8s-8,3.576-8,8v32c0,4.424,3.576,8,8,8s8-3.576,8-8V279.885z"/>
			<path d="M368,335.885c-4.424,0-8,3.576-8,8v8c0,4.424,3.576,8,8,8s8-3.576,8-8v-8C376,339.461,372.424,335.885,368,335.885z"/>
			<path d="M456,335.885c-4.424,0-8,3.576-8,8v32c0,4.424,3.576,8,8,8s8-3.576,8-8v-32C464,339.461,460.424,335.885,456,335.885z"/>
			<path d="M456,399.885c-4.424,0-8,3.576-8,8v8c0,4.424,3.576,8,8,8s8-3.576,8-8v-8C464,403.461,460.424,399.885,456,399.885z"/>
			<path d="M424,95.885c4.424,0,8-3.576,8-8v-32c0-4.424-3.576-8-8-8s-8,3.576-8,8v32C416,92.309,419.576,95.885,424,95.885z"/>
			<path d="M424,135.885c4.424,0,8-3.576,8-8v-8c0-4.424-3.576-8-8-8s-8,3.576-8,8v8C416,132.309,419.576,135.885,424,135.885z"/>
			<path d="M56,95.885c4.424,0,8-3.576,8-8v-32c0-4.424-3.576-8-8-8s-8,3.576-8,8v32C48,92.309,51.576,95.885,56,95.885z"/>
			<path d="M56,135.885c4.424,0,8-3.576,8-8v-8c0-4.424-3.576-8-8-8s-8,3.576-8,8v8C48,132.309,51.576,135.885,56,135.885z"/>
			<path d="M112,319.885c4.424,0,8-3.576,8-8v-32c0-4.424-3.576-8-8-8s-8,3.576-8,8v32C104,316.309,107.576,319.885,112,319.885z"/>
			<path d="M104,351.885c0,4.424,3.576,8,8,8s8-3.576,8-8v-8c0-4.424-3.576-8-8-8s-8,3.576-8,8V351.885z"/>
			<path d="M24,335.885c-4.424,0-8,3.576-8,8v32c0,4.424,3.576,8,8,8s8-3.576,8-8v-32C32,339.461,28.424,335.885,24,335.885z"/>
			<path d="M24,399.885c-4.424,0-8,3.576-8,8v8c0,4.424,3.576,8,8,8s8-3.576,8-8v-8C32,403.461,28.424,399.885,24,399.885z"/>
		</g>
	</g>
</g>
<g>
</g>
<g>
</g>
<g>
</g>
<g>
</g>
<g>
</g>
<g>
</g>
<g>
</g>
<g>
</g>
<g>
</g>
<g>
</g>
<g>
</g>
<g>
</g>
<g>
</g>
<g>
</g>
<g>
</g>
</svg>
