<svg id="Layer_1" data-name="Layer 1" xmlns="http://www.w3.org/2000/svg" viewBox="0 0 65 65"><defs><style>.cls-1,.cls-2,.cls-3,.cls-6{fill:none;stroke-width:2px;}.cls-1,.cls-3{stroke:#2172e8;}.cls-1{stroke-linejoin:round;}.cls-2{stroke:#69a6ff;}.cls-2,.cls-3{stroke-linecap:square;}.cls-2,.cls-3,.cls-6{stroke-miterlimit:10;}.cls-4{fill:#2172e8;}.cls-5{fill:#fff;}.cls-6{stroke:#f36;}</style></defs><polyline class="cls-1" points="12.91 45.9 5.21 45.9 5.21 62.52 12.91 62.52"/><path class="cls-2" d="M20.54,58.34,34.8,60.87A5.76,5.76,0,0,0,39,60L58.68,49.3a2.74,2.74,0,0,0,.7-3.64h0a2.76,2.76,0,0,0-3.15-1.2L46.14,46.9"/><path class="cls-3" d="M27.77,50.07l7.72,1.1A3,3,0,0,0,38.83,49l0-.14a1.43,1.43,0,0,0-.9-1.76l-10.82-3.8a8.92,8.92,0,0,0-4.86-.1L12.91,45.9V62.52"/><line class="cls-2" x1="47.42" y1="22.48" x2="47.42" y2="35.41"/><line class="cls-2" x1="10.95" y1="17" x2="35.73" y2="17"/><polyline class="cls-3" points="47.42 35.41 10.95 35.41 10.95 23.58"/><ellipse class="cls-4" cx="28.91" cy="26.2" rx="5.72" ry="5.69"/><path class="cls-5" d="M28.48,29.92l-.05-.54v-.16l-.15,0a2,2,0,0,1-1.06-.57,1.58,1.58,0,0,1-.4-1.11v-.19l1-.05.06.18a.78.78,0,0,0,.32.62,1.39,1.39,0,0,0,.86.24,1,1,0,0,0,.68-.2A.64.64,0,0,0,30,27.6a.56.56,0,0,0-.14-.38,1.16,1.16,0,0,0-.37-.26l-.73-.3a6,6,0,0,1-.93-.4,1.85,1.85,0,0,1-.63-.55,1.37,1.37,0,0,1-.26-.85,1.51,1.51,0,0,1,.39-1.06,1.9,1.9,0,0,1,1-.53l.16,0,0-.71.91-.05.05.62v.16l.15,0a2,2,0,0,1,1.05.59A1.67,1.67,0,0,1,31,25v.13l-1,.05-.05-.12a.83.83,0,0,0-.31-.65,1.15,1.15,0,0,0-.81-.26,1,1,0,0,0-.63.18.67.67,0,0,0-.1.9,1.33,1.33,0,0,0,.4.28c.17.08.43.18.78.31a9,9,0,0,1,.91.38,1.94,1.94,0,0,1,.59.5,1.36,1.36,0,0,1,.25.85,1.52,1.52,0,0,1-.41,1.1,2,2,0,0,1-1.06.54l-.15,0v.64l-.06.05Z"/><line class="cls-6" x1="54.25" y1="26.32" x2="54.25" y2="13.46"/><polyline class="cls-6" points="50.34 16.08 54.25 12.16 58.17 16.08"/><line class="cls-6" x1="42.05" y1="17.05" x2="42.05" y2="4.18"/><polyline class="cls-6" points="38.13 6.81 42.05 2.89 45.97 6.81"/></svg>