<?xml version="1.0" encoding="iso-8859-1"?>
<!-- Generator: Adobe Illustrator 19.0.0, SVG Export Plug-In . SVG Version: 6.00 Build 0)  -->
<svg version="1.1" id="Layer_1" xmlns="http://www.w3.org/2000/svg" xmlns:xlink="http://www.w3.org/1999/xlink" x="0px" y="0px"
	 viewBox="0 0 512 512" style="enable-background:new 0 0 512 512;" xml:space="preserve">
<path style="fill:#47CEAC;" d="M0,256.006C0,397.402,114.606,512.004,255.996,512C397.394,512.004,512,397.402,512,256.006
	C512.009,114.61,397.394,0,255.996,0C114.606,0,0,114.614,0,256.006z"/>
<path style="fill:#36BB9A;" d="M512,256.005c0-2.361-0.114-4.693-0.177-7.039c-0.214-0.197-137.126-141.008-150.307-150.306
	c-1.209-1.714-3.104-2.907-5.362-2.907h-193.63c-3.691,0-6.677,2.99-6.677,6.676v53.415c0,2.256,1.193,4.154,2.907,5.362
	c0.443,0.627,87.801,87.951,87.94,88.113H135.817c-3.691,0-6.677,2.99-6.677,6.677v80.123h-26.707c-3.691,0-6.677,2.99-6.677,6.677
	v66.768c0,2.258,1.193,4.154,2.907,5.363c0.442,0.629,85.362,85.548,85.99,85.99c0.362,0.513,0.819,0.914,1.3,1.299
	c22.27,6.323,45.746,9.778,70.045,9.778C397.394,512.004,512,397.401,512,256.005z"/>
<path style="fill:#F6F6F6;" d="M409.568,336.123h-26.707V256c0-3.687-2.987-6.677-6.677-6.677H262.677v-86.799h93.476
	c3.691,0,6.677-2.99,6.677-6.677v-53.414c0-3.687-2.987-6.677-6.677-6.677h-193.63c-3.691,0-6.677,2.99-6.677,6.677v53.415
	c0,3.687,2.987,6.677,6.677,6.677h86.799v86.799H135.817c-3.691,0-6.677,2.99-6.677,6.677v80.123h-26.707
	c-3.691,0-6.677,2.99-6.677,6.677v66.769c0,3.687,2.987,6.677,6.677,6.677h66.769c3.691,0,6.677-2.99,6.677-6.677v-66.769
	c0-3.687-2.987-6.677-6.677-6.677h-26.707v-73.446h106.829v73.445h-26.707c-3.691,0-6.677,2.99-6.677,6.677v66.769
	c0,3.687,2.987,6.677,6.677,6.677h66.769c3.691,0,6.677-2.99,6.677-6.677V342.8c0-3.687-2.987-6.677-6.677-6.677h-26.707v-73.445
	h106.83v73.445H342.8c-3.691,0-6.677,2.99-6.677,6.677v66.769c0,3.687,2.987,6.677,6.677,6.677h66.769
	c3.691,0,6.677-2.99,6.677-6.677V342.8C416.245,339.113,413.259,336.123,409.568,336.123z M169.201,149.17v-40.061h180.275v40.061
	h-86.799h-13.355H169.201z M162.524,349.476v53.415h-53.414v-53.415h20.031h13.354H162.524z M282.707,349.476v53.415h-53.415
	v-53.415h20.031h13.354H282.707z M402.891,402.891h-53.415v-53.415h20.031h13.354h20.031V402.891z"/>
<g>
</g>
<g>
</g>
<g>
</g>
<g>
</g>
<g>
</g>
<g>
</g>
<g>
</g>
<g>
</g>
<g>
</g>
<g>
</g>
<g>
</g>
<g>
</g>
<g>
</g>
<g>
</g>
<g>
</g>
</svg>
