<svg id="Layer_1" data-name="Layer 1" xmlns="http://www.w3.org/2000/svg" viewBox="0 0 65 65"><defs><style>.cls-1,.cls-2,.cls-3,.cls-4,.cls-5,.cls-7{fill:none;stroke-miterlimit:10;stroke-width:2px;}.cls-1{stroke:#b3d2ff;}.cls-1,.cls-3,.cls-4{stroke-linecap:square;}.cls-2,.cls-3,.cls-5{stroke:#2172e8;}.cls-4{stroke:#69a6ff;}.cls-5{stroke-linecap:round;}.cls-6{fill:#2172e8;}.cls-7{stroke:#f36;}</style></defs><polyline class="cls-1" points="34.56 30.87 41.36 27.48 46.03 36.03"/><path class="cls-2" d="M33.18,25.87a8.34,8.34,0,0,1-5.5,10.65,8.81,8.81,0,0,1-11.07-5.29"/><path class="cls-3" d="M9.91,33.54V58.18a4.43,4.43,0,0,0,4.52,4.34H49.09v-5"/><path class="cls-3" d="M52.08,46.88a3,3,0,0,0,3-2.9h0a3,3,0,0,0-3-2.9H50.56"/><path class="cls-4" d="M49.09,45.85V36.91H13.38a3.4,3.4,0,0,1-3.47-3.33h0a3.4,3.4,0,0,1,3.47-3.34h1"/><path class="cls-3" d="M50.58,46.88H41.75A3.21,3.21,0,0,0,38.48,50h0a3.22,3.22,0,0,0,3.27,3.16H51.82A3.22,3.22,0,0,0,55.09,50V45.19"/><path class="cls-5" d="M16.61,31.23a8.35,8.35,0,0,1,5.5-10.66,8.82,8.82,0,0,1,11.07,5.3"/><path class="cls-6" d="M24.19,33.06l-.06-.66v-.19l-.19,0a2.51,2.51,0,0,1-1.32-.7,1.87,1.87,0,0,1-.5-1.34V29.9l1.24-.06.07.23a.94.94,0,0,0,.39.75,1.8,1.8,0,0,0,1.08.3,1.32,1.32,0,0,0,.86-.24.81.81,0,0,0,.29-.62.63.63,0,0,0-.18-.46,1.69,1.69,0,0,0-.46-.32c-.19-.08-.48-.2-.91-.36a7.72,7.72,0,0,1-1.16-.5,2.2,2.2,0,0,1-.78-.67,1.58,1.58,0,0,1-.31-1,1.81,1.81,0,0,1,.49-1.28A2.4,2.4,0,0,1,24,25l.19,0,0-.85,1.15-.06.06.76V25l.19,0a2.32,2.32,0,0,1,1.3.72,2,2,0,0,1,.51,1.37v.16l-1.25.05-.07-.15a1,1,0,0,0-.37-.79,1.51,1.51,0,0,0-1-.32,1.21,1.21,0,0,0-.8.21.77.77,0,0,0-.3.61.72.72,0,0,0,.17.48,1.5,1.5,0,0,0,.49.34c.21.1.54.23,1,.38s.86.33,1.14.47a2.24,2.24,0,0,1,.73.62,1.54,1.54,0,0,1,.31,1,1.83,1.83,0,0,1-.52,1.33,2.49,2.49,0,0,1-1.33.64l-.2,0V33l-.07.06Z"/><polyline class="cls-7" points="49.5 24.29 48.71 29.19 53.81 29.95"/><path class="cls-7" d="M37.39,24.43A8.33,8.33,0,0,1,42.3,13.48,8.88,8.88,0,0,1,53.68,18.2a8.33,8.33,0,0,1-4.91,11"/></svg>