<?xml version="1.0" encoding="UTF-8" standalone="no"?>
<svg xmlns:rdf="http://www.w3.org/1999/02/22-rdf-syntax-ns#" xmlns="http://www.w3.org/2000/svg" height="611.32pt" width="452pt" version="1.1" xmlns:cc="http://creativecommons.org/ns#" xmlns:dc="http://purl.org/dc/elements/1.1/" viewBox="0 0 452 611.32446">
<g transform="translate(0 -59.676)">
<g>
<path d="m210.11 59.68c-52.82 0.427-101.14 33.094-131.06 75.37-14.43 22.5-36.31 38.67-51.88 60.18-2.19 9.64-9.9706 23.01-1.9906 31.72 14.05 6.72 30.92 6.5203 45.9 3.0703 5.33 3.06 1.5206 10.829 2.5906 15.939-3.34 8.85-4.0906 18.291-2.9906 27.631-19.34 1.23-11.06 23.56-4.65 34.33 8.81 12.37 6.3406 29.24 15.791 41.22 7.3 6.41 7.4897 17.959 18.03 21.109 4.73 14.68 5.78 31.43 15.3 44.42 8.33 9.91 5.2497 23.83 6.5797 35.78-13.75 3.89-15.989 20.5-25.789 29.48-18.63 18.45-42.02 31.98-68.3 35.7-8.93 3.78-23.661 2.85-27.641 13.11v2.79 139.47h89.8 1.8203 93.859 46.691 96.72 1.889 121.22v-113.62-4.63c-16.78-16.78-41.7-15.78-61.88-25.88-10.13-3.25-18.7-11.07-29.6-11.63-3.77-7.68-11.59-11.54-17.45-17.32-13.05-16.86-19.32-38.701-36.72-51.991-0.73-20.58 2.7294-41.139 6.1594-61.389 1.86-15.38 19.761-19.381 25.531-32.481 8.23-16.99 4.5-37.379 14.45-53.789 6.24-10.58-4.6306-20.11-15.041-16.67 10.19-21.96 9.1603-47.79-4.4797-68.15-0.42-1.22-0.83032-2.44-1.2203-3.65 2.09-5.87 9.0397-11.82 3.7797-18.07-5.94-4.55-4.699-12.56-3.039-19 16.06-4.73 30.17-14.74 42.28-26.03 10.73-13.6-2.41-31.47-17.17-34.29-18.91-5.58-35.81-15.93-54.2-22.81-29.5-9.71-56.23-28.769-88.17-29.859-1.7125-0.05406-3.4198-0.07473-5.1234-0.06094z" fill="#00427f"/>
<path d="m262.63 74.6c-66.01 0.534-126.41 41.37-163.82 94.21-18.038 28.125-45.387 48.337-64.85 75.225-2.7375 12.05-12.463 28.763-2.4883 39.65 17.562 8.4 38.65 8.1504 57.375 3.8379 10.725 0.2375-3.0992-10.85 2.8633-15.688 20-24.362 45.549-43.65 72.236-60.15-35.725 8.85-55.886 49.675-89.611 60.562 2.475 4.325 9.3121 5.8871 10.725 11.537-15.95 5.525-32.65-0.44961-48.875-1.0996-10.985-6.49-6.26-22.64 2.477-29.18 55.425-49.71 90.688-121.21 159.9-154.94 32.712-13.05 70.55-19.774 104.25-6.3613 53.525 20.925 106.54 43.163 160.26 63.463 13.725 17.475-6.3867 37.474-22.887 42.361-8.8625-1.6375-18.412-6.6121-26.625-0.66211-23.875-10.375-48.887-21.7-75.412-21.75-7.0875-0.1375 0.31211 7.7758 4.7246 5.3633 27.638 8.0875 72.137 15.65 69.537 53.225-105.9-19.112-220.32-1.9883-312.86 54.512 0.1375 7.5125 1.2371 16.062-7.4629 18.725-4.175 11.062-5.1133 22.864-3.7383 34.539-24.175 1.5375-13.825 29.45-5.8125 42.912 11.012 15.462 7.9258 36.55 19.738 51.525 9.125 8.0125 9.3621 22.449 22.537 26.387 5.9125 18.35 7.225 39.288 19.125 55.525 10.412 12.388 6.5621 29.787 8.2246 44.725-17.188 4.8625-19.986 25.625-32.236 36.85-23.287 23.062-52.525 39.975-85.375 44.625-11.162 4.71-29.575 3.55-34.55 16.38v3.4863c26.15-11.875 55.863-13.363 80.65-28.713 3.7 2.975-7.2254 20.875-0.90039 22.65 4.2125-14.575 6.6242-33.299 22.824-39.549 18.2-9.825 29.339-27.95 40.164-44.838 0.7125-4.525 9.1113-7.8121 10.049-1.7871 6.1625 19.525 3.4375 40.488 7.0625 60.5 8.5375 73.3 41.15 140.16 72 206.07h58.363c8.3625-11 18.375-20.974 22.912-34.387 14.138-37.6 34.2-72.512 48.875-109.88 12.2-40.762 23.299-82.613 22.449-125.53 13.525 1.5625 15.564 21.762 22.977 31.1 5.9125 20.662 30.736 26.926 36.236 47.551 5.5125 19.938 5.3508 40.761 7.3008 61.211 6.2375 27.55-32.739 26.364-46.639 31.389 10.212 9.4625 30.288 8.3863 33.15 24.924-7.5 25-24.274 46.863-26.361 73.613h2.3613c7.1875-27.412 22.763-52.225 30.15-79.65-1.2-7.7875-9.2383-10.061-15.176-13.111 8.5-8.6625 29.714-5.6754 29.826-21.088-0.175-25.112-3.1629-50.025-6.7754-74.812 36.512 17.612 74.525 33.837 113.5 46.637v-5.7871c-20.975-20.975-52.125-19.725-77.35-32.35-12.662-4.0625-23.375-13.837-37-14.537-4.7125-9.6-14.488-14.425-21.812-21.65-16.312-21.075-24.15-48.376-45.9-64.988-0.9125-25.725 3.4117-51.424 7.6992-76.736 2.325-19.225 24.702-24.227 31.914-40.602 10.288-21.238 5.625-46.724 18.062-67.236 7.8-13.225-5.7883-25.138-18.801-20.838 12.738-27.45 11.45-59.738-5.5996-85.188-12.075 20.225-31.064 35.512-51.639 46.5-47.2 26.462-103.11 24.762-154.8 35.312-33.038 1.1875-78.3 5.1121-101.04-22.213 64.362 33.925 138.27 11.326 205.32-1.1113 41.238-3.525 77.825-29.313 100.62-63.051 2.6125-7.3375 11.3-14.775 4.7246-22.588-7.425-5.6875-5.8738-15.7-3.7988-23.75 20.075-5.9125 37.712-18.425 52.85-32.537 13.46-16.98-2.97-39.32-21.42-42.85-23.64-6.97-44.76-19.91-67.75-28.51-36.87-12.138-70.29-35.962-110.21-37.324-2.1406-0.06758-4.2748-0.09341-6.4043-0.07617zm-0.1582 3.5625c47.088 1.775 87.725 27.8 130.9 43.475 20.725 10.638 45.613 14.388 64.176 28.463-60.388-17.975-114.81-53.575-177.33-65.537-32.975-6.1125-66.787 2.1379-96.262 16.963 21.875-17.1 51.137-22.738 78.512-23.363zm-80.78 23.618c0.6 5.8375-9.675 1.425 0 0zm-9.6992 5.1504c0.4375 2.2875-9.0879 7.1359-13.213 9.4609 2.675-5.0125 8.4754-6.9109 13.213-9.4609zm-70.039 67.475c-18.35 24.062-38.363 58.662-66.875 76.787 20.112-26.962 43.162-52.825 66.875-76.787zm238.16 55.654c8.7501 0.0978 15.565 2.5086 13.486 13.559-83.812-3.9875-166.66 17.7-241.36 54.875-7.675 5.85-8.7516-10.701-2.2891-12.113 62.062-37.762 135-54.95 207.26-55.525 5.9531 0.83203 15.18-0.88126 22.9-0.79492zm27.598 0.125c7.7676-0.003 4.5734 10.196 3.6894 14.895-6.2-1.5-3.9996-10.024-4.4746-14.861 0.27383-0.0219 0.53459-0.0331 0.78516-0.0332zm-7.9883 0.63281c6.0293 0.22448 4.7008 17.257-1.4844 12.137-2.225-3.275-0.5375-7.8875-0.625-11.625 0.78399-0.37969 1.4857-0.53494 2.1094-0.51172zm22.635 1.875c11.854-0.10117 31.434 2.5445 24.467 16.512-10.4-2.525-35.137 1.2008-28.975-16.324 1.2781-0.10156 2.8144-0.17305 4.5078-0.1875zm31.631 6.3008c9.4625 5.5375-5.0875 16.112 0 0zm-81.637 7.9668c0.73599 0.002 1.4676 0.016 2.1856 0.0449 24.738 0.6375 52.639-0.30078 75.326 8.2617-16 38.838-61.639 57.639-100.85 65.014-63.8 10.825-133.01 27.162-194.75-0.80078 12.35-0.4375 30.925 7.8 45.5 9.0625-0.0625-14.788 7.2887-30.4 3.5762-44.688-20.975 5.7375-40.588 17.725-60.863 26.15 9.6375 8.875-2.3875 6.0742-5.1875-1.0508 35.313-20.512 74.751-34.199 114.36-43.361 1.1375 20.775-4.1875 41.287-3.125 62.012 0.1875 9.95 14.138 2.9629 20.15 3.7129 2.7875-23.038 0.92383-46.313 0.11133-69.426-21.75 0.925 39.762-12.586 14.938-2.8613 0.8375 20.8 4.5871 44.562 8.7871 65.912 31.125-3.9625 62.826-7.5883 92.176-19.363-1.44-19.08-7.81-38.76-16.94-55.07-18.457-0.67969-6.4383-3.5677 4.6016-3.5449zm-139.26 25.658c-8.225 6.6-1.3375 22.586-5.5 32.461-0.2 6.3625-6.3012 31.201 4.7988 23.238-1.6-17.75 5.8137-40.774 0.70117-55.699zm-107.44 79.14c10.65 2.175 16.988 15.937 17.15 26.699-9.7375-0.725-7.6391-15.599-17.852-15.824-3.8 4.7875 1.95 8.3121 4.9375 11.35 11.275 19.65 9.4875 47.039 29.125 60.764 2.725 4.1625 7.4754 20.174-0.91211 14.699-19.8-20.375-21.411-50.013-36.924-73.15-5.4875-7.675-5.5504-20.75 4.4746-24.537zm178.12 9.6113c1.0916-0.0515 2.2203 0.007 3.3906 0.18945 8.625 19.362-6.1129 44.362 3.7246 64.688-3.6125 13-20.224-5.9383-22.549 7.1367-5.2375 3.95-13.35 4.4129-18.65 9.2129-8.5-6.6875 4.5625-14.925 1.6875-21.412-10.525 3.625-9.0004 18.812-6.5254 27.387 5.7 13.562 28.375-2.2008 30.162 13.949 13.275-6.4875 26.325 7.6754 40.125 6.2129 11.55 3.2875 16.677-10.363 14.539-19.275-6.0125-15.762-9.8762-32.211-13.201-48.711-0.9375-6.5625 1.6871-20.213 11.225-15.988 22.762 14.1 49.739-16.412 69.352 5.6504 16.762 24.362-10.614 48.575-6.1016 74.213-2.925 6.7625 2.1258 15.161 5.5508 5.1484 8.8875 49.8-36.15 82.451-68.938 110.26-30.05 18.35-68.775 10.874-96.5-8.6133-30.338-14.288-53.549-40.274-69.324-69.424-9.5125-27.688-15.189-56.576-20.539-85.238-16.338-10.275-11.55-33.863-4.1621-45.988 16.525 6.025 34.538 9.7508 52.088 6.7383-4.1625-6.7125 10.651-7.5117 13.988-2.8867 11.475 12.775 24.624-10.026 35.449 1.7363-8.9375 8.2625-33.112 0.73789-38.449 6.0879-6.275 20.388 43.362-6.9004 45.262 10.787 14.027-5.543 22.023-31.091 38.396-31.863zm162.54 12.428c0.9596 0.0472 1.5234 0.49024 0.65625 1.998-8.125 17.388-5.3 37.388-12.312 55.062-0.3875 2.1-6.0383 4.5996-4.3633 0.91211 9.0875-17.588 2.2504-41.811 14.088-57.773 0.6375-0.1125 1.3559-0.22756 1.9316-0.19922zm-191.37 73.42c5.275 0 10.5 0.75039 15.6 2.0879-4.3-0.3125-14.2 4.1621-15.6-2.0879zm56.992 36.936c-2.3858 0.0532-4.8223 0.45625-7.3301 1.3633-18.225 8.8375-38.35-3.0238-57.088 5.8262-4.925 2.7875-15.338-3.9883-11.375 6.9492 16.325-1.575 32.8-5.4492 49.088-0.88672 18.162-1.7625 36.012-7.9996 54.25-1.8496 6.8875 6.125 8.3383-7.975 2.3633-4.9375-10.177-0.35547-19.57-6.6953-29.908-6.4648zm7.9023 23.957c-0.0828 0.005-0.17578 0.0207-0.28125 0.0449-16.075 11.125-36.589 2.4242-53.826 4.5117 13.725 8.7375 30.988 10.4 46.375 5.9375 2.2402-1.8527 10.299-10.651 7.7324-10.494zm68.281 14.82c5.1125 6.1875-6.7387 15.412-12.889 19.812 3.6875-6.975 8.9637-12.962 12.889-19.812zm-214.65 10.736c34.938 28.45 72.862 64.35 121.7 60.1 34.562 3.275 53.364-30.712 78.389-47.699-19.225 24.425-43.914 54.875-78.477 52.088-18.925 0.8-36.862-4.9129-54.887-9.5254 14.7 12.525 29.337 27.751 49.1 32.551 15.725 7.2125 35.639 2.7609 50.701 8.5859-23.788 15.7-56.202 26.689-83.227 12.227-45.612-15.65-86.299-57.251-83.299-108.33zm223.3 47.287c5.7375 80.462-34.873 155.26-70.461 223.99-7.1625-31.675-41.738-57.337-26.488-91.262-0.625-1.2375 3.65-12.263 5.1875-5.0879 7.925 20.225 22.101 38.775 42.301 47.787-3.6375-9.9875-14.5-14.7-20.9-22.775-11.225-14.725-18.612-31.899-24.35-49.387-3.4625-9.4-9.1008-21.888-20.238-22.625-21.575 21.112-36.162 50.113-62.912 65.713-31.162-41.112-36.338-96-41.562-145.9 19.962 36.838 57.138 62.225 97.25 73.025 50 1.25 100.32-27.614 122.17-73.477zm-120.58 124.1c12.2 0.0875 1.8992 16.287 2.2617 23.387-7.4125-1.25-1.8367-17.074-2.2617-23.387zm-24.488 1.5742c6.1125 7.5125 6.0625 23.389 13.25 32.514-6.7 19.65-17.35 37.774-25 57.111-12.438-13.912-18.637-34.7-21.949-52.912 12.975-10.5 23.837-23.275 33.699-36.713zm-162.86 6.8887c-1.7 11.538-0.8 23.737 2.75 34.85 6.175 3.425 14.3 1.2492 19.938 5.3867-7.275 6.5125-22.411 12.439-17.799 24.789 12.169 20.46 23.706 41.47 38.531 60.2h2.2754c-4.9625-8.3375-10.438-16.725-11.438-26.6-7.327-13.25-22.078-24.06-22.965-40.15 10.275-15.988 29.837-23.113 43.699-34.676-15.075 2.25-30.224 5.3754-45.549 3.8379-8.4625-5.6625-0.86367-22.749-9.4512-27.637zm190.53 35.324c3.95 7.8 6.1996 23.488 1.9746 33.65-14.488-1.475-7.8121-26.713-1.9746-33.65z" transform="scale(.8)"/>
<path d="m340.11 230.05c-7.7206-0.0863-16.947 1.627-22.9 0.79492-72.262 0.575-145.2 17.763-207.26 55.525-6.4625 1.4125-5.3859 17.963 2.2891 12.113 74.7-37.175 157.55-58.862 241.36-54.875 2.0785-11.05-4.7363-13.461-13.486-13.559zm27.598 0.125c-0.25057 0.00011-0.51133 0.0113-0.78516 0.0332 0.475 4.8375-1.7254 13.361 4.4746 14.861 0.88399-4.6984 4.0781-14.898-3.6894-14.895zm-7.9883 0.63281c-0.62372-0.0232-1.3254 0.13203-2.1094 0.51172 0.0875 3.7375-1.6 8.35 0.625 11.625 6.1852 5.1203 7.5136-11.912 1.4844-12.137zm22.635 1.875c-1.6934 0.0145-3.2297 0.0859-4.5078 0.1875-6.1625 17.525 18.575 13.799 28.975 16.324 6.9672-13.967-12.613-16.613-24.467-16.512zm31.631 6.3008c-5.0875 16.112 9.4625 5.5375 0 0zm0.7 23.27c-22.8 33.738-59.388 59.526-100.62 63.051-67.05 12.438-140.96 35.036-205.32 1.1113 22.738 27.325 68 23.4 101.04 22.213 51.688-10.55 107.6-8.85 154.8-35.312 20.575-10.988 39.564-26.275 51.639-46.5-0.525-1.525-1.0379-3.05-1.5254-4.5625z" transform="scale(.8)" fill="#e06f1f"/>
<path d="m85.65 351.75c-10.025 3.7875-9.9621 16.862-4.4746 24.537 15.512 23.138 17.124 52.775 36.924 73.15 8.3875 5.475 3.6371-10.537 0.91211-14.699-19.638-13.725-17.85-41.114-29.125-60.764-2.9875-3.0375-8.7375-6.5621-4.9375-11.35 10.212 0.225 8.1141 15.099 17.852 15.824-0.16-10.76-6.5-24.53-17.15-26.7zm178.12 9.6113c-16.374 0.77215-24.369 26.32-38.396 31.863-1.9-17.688-51.537 9.6004-45.262-10.787-3.61-1.78-7.31-3.34-10.99-4.94-17.55 3.0125-35.563-0.71328-52.088-6.7383-7.3875 12.125-12.175 35.713 4.1621 45.988 5.35 28.662 11.027 57.551 20.539 85.238 15.775 29.15 38.987 55.136 69.324 69.424 27.725 19.488 66.45 26.963 96.5 8.6133 32.788-27.812 77.825-60.464 68.938-110.26-3.425 10.012-8.4758 1.6141-5.5508-5.1484-4.5125-25.638 22.864-49.85 6.1016-74.213-19.612-22.062-46.589 8.4496-69.352-5.6504-9.5375-4.225-12.162 9.4258-11.225 15.988 3.325 16.5 7.1887 32.948 13.201 48.711 2.1375 8.9125-2.9891 22.563-14.539 19.275-13.8 1.4625-26.85-12.7-40.125-6.2129-1.7875-16.15-24.462-0.38672-30.162-13.949-2.475-8.575-3.9996-23.762 6.5254-27.387 2.875 6.4875-10.188 14.725-1.6875 21.412 5.3-4.8 13.413-5.2629 18.65-9.2129 2.325-13.075 18.936 5.8633 22.549-7.1367-9.8375-20.325 4.9004-45.325-3.7246-64.688-1.1703-0.18203-2.299-0.24093-3.3906-0.18945zm162.54 12.428c-0.57576-0.0283-1.2941 0.0867-1.9316 0.19922-11.838 15.962-5.0004 40.186-14.088 57.773-1.675 3.6875 3.9758 1.1879 4.3633-0.91211 7.0125-17.675 4.1875-37.675 12.312-55.062 0.86719-1.5078 0.30335-1.9508-0.65625-1.998zm-191.37 73.42c1.4 6.25 11.3 1.7754 15.6 2.0879-5.1-1.3375-10.325-2.0879-15.6-2.0879zm56.992 36.936c10.338-0.23042 19.732 6.1094 29.908 6.4648 5.975-3.0375 4.5242 11.062-2.3633 4.9375-18.238-6.15-36.088 0.0871-54.25 1.8496-16.288-4.5625-32.763-0.68828-49.088 0.88672-3.9625-10.938 6.45-4.1617 11.375-6.9492 18.738-8.85 38.863 3.0113 57.088-5.8262 2.5078-0.90703 4.9443-1.3101 7.3301-1.3633zm7.9023 23.957c2.5669-0.15656-5.4922 8.6414-7.7324 10.494-15.388 4.4625-32.65 2.8-46.375-5.9375 17.238-2.0875 37.751 6.6133 53.826-4.5117 0.10547-0.0242 0.19845-0.0399 0.28125-0.0449zm68.281 14.82c-3.925 6.85-9.2012 12.838-12.889 19.812 6.15-4.4 18.001-13.625 12.889-19.812zm-214.65 10.736c-3 51.075 37.686 92.676 83.299 108.33 27.025 14.462 59.439 3.4734 83.227-12.227-15.062-5.825-34.976-1.3734-50.701-8.5859-19.762-4.8-34.4-20.026-49.1-32.551 18.025 4.6125 35.962 10.325 54.887 9.5254 34.562 2.7875 59.252-27.663 78.477-52.088-25.025 16.988-43.826 50.974-78.389 47.699-48.838 4.25-86.762-31.65-121.7-60.1z" transform="scale(.8)" fill="#ffd5a0"/>
</g>
<path fill="#fff" d="m135.3 302c-3.33-5.37 8.52-6.01 11.19-2.31 9.18 10.22 19.7-8.02 28.36 1.39-7.15 6.61-26.49 0.59-30.76 4.87-2.89-1.42-5.85-2.67-8.79-3.95z"/>
<path d="m376.76 580.95c-21.85 45.862-72.174 74.727-122.17 73.477-40.112-10.8-77.288-36.188-97.25-73.025 5.225 49.9 10.4 104.79 41.562 145.9 26.75-15.6 41.337-44.6 62.912-65.713 11.138 0.7375 16.776 13.225 20.238 22.625 5.7375 17.488 13.125 34.662 24.35 49.387 6.4 8.075 17.263 12.788 20.9 22.775-20.2-9.0125-34.376-27.562-42.301-47.787-1.5375-7.175-5.8125 3.8504-5.1875 5.0879-15.25 33.925 19.326 59.587 26.488 91.262 35.588-68.725 76.198-143.53 70.461-223.99zm-145.07 125.69c-9.8625 13.438-20.724 26.213-33.699 36.713 3.3125 18.212 9.5117 39 21.949 52.912 7.65-19.338 18.3-37.461 25-57.111-7.1875-9.125-7.1375-25.001-13.25-32.514z" transform="scale(.8)" fill="#a7b4ff"/>
</g>
</svg>
