<?xml version="1.0" encoding="iso-8859-1"?>
<!-- Generator: Adobe Illustrator 18.0.0, SVG Export Plug-In . SVG Version: 6.00 Build 0)  -->
<!DOCTYPE svg PUBLIC "-//W3C//DTD SVG 1.1//EN" "http://www.w3.org/Graphics/SVG/1.1/DTD/svg11.dtd">
<svg version="1.1" id="Capa_1" xmlns="http://www.w3.org/2000/svg" xmlns:xlink="http://www.w3.org/1999/xlink" x="0px" y="0px"
	 viewBox="0 0 459.732 459.732" style="enable-background:new 0 0 459.732 459.732;" xml:space="preserve">
<g id="XMLID_972_">
	<path id="XMLID_1012_" d="M82.121,75.451c-0.189-0.112-0.374-0.232-0.562-0.345c0.193,18.904,15.57,34.171,34.519,34.171
		c18.945,0,34.319-15.26,34.519-34.157c-8.515,5.109-20.59,10.304-34.519,10.304C104.917,85.424,93.175,81.975,82.121,75.451z"/>
	<path id="XMLID_1069_" d="M73.796,45.935c0,0,23.465,20.08,42.282,20.08c18.817,0,42.282-20.08,42.282-20.08
		c1.744-1.173,2.555-3.323,2.019-5.356l-4.81-18.257c-0.617-2.342-2.202-4.311-4.359-5.413L119.954,0.933
		C118.737,0.311,117.408,0,116.079,0c-1.329,0-2.659,0.311-3.876,0.933L80.946,16.91c-2.157,1.102-3.742,3.071-4.359,5.413
		l-4.81,18.257C71.241,42.612,72.052,44.762,73.796,45.935z M106.536,23.303h19.085c5.36,0,9.705,4.345,9.705,9.705
		c0,5.36-4.345,9.704-9.705,9.704h-19.085c-5.36,0-9.704-4.345-9.704-9.704C96.832,27.647,101.176,23.303,106.536,23.303z"/>
	<path id="XMLID_1070_" d="M31.001,281.906c-0.046,9.201,7.375,16.697,16.576,16.744c0.029,0,0.057,0,0.086,0
		c9.161,0,16.612-7.404,16.658-16.576l0.045-9.055h-33.32L31.001,281.906z"/>
	<path id="XMLID_1071_" d="M167.334,273.019l0.046,9.055c0.046,9.173,7.495,16.577,16.658,16.577c0.028,0,0.057,0,0.086,0
		c9.201-0.046,16.622-7.543,16.576-16.744l-0.045-8.888H167.334z"/>
	<path id="XMLID_1075_" d="M200.084,159.511c-0.109-21.63-17.795-39.228-39.426-39.228c-4.825,0-63.5,0-89.617,0
		c-21.63,0-39.317,17.597-39.425,39.228l-0.473,94.099h33.32l0.472-93.931c0.009-1.823,1.492-3.294,3.314-3.289
		c1.822,0.005,3.296,1.484,3.296,3.306l0.008,280.044c0,11.041,8.951,19.992,19.992,19.992c11.041,0,19.992-8.951,19.992-19.992
		V284.257c0-2.384,1.932-4.316,4.316-4.316c2.384,0,4.316,1.932,4.316,4.316V439.74c0,11.041,8.951,19.992,19.992,19.992
		c11.041,0,19.992-8.951,19.992-19.992l-0.355-279.934c-0.002-1.9,1.519-3.452,3.419-3.487c1.9-0.035,3.479,1.459,3.546,3.36
		l0.472,93.931h33.32L200.084,159.511z M128.349,213.635l-10.325,11.76c-0.492,0.56-1.201,0.881-1.946,0.881
		c-0.745,0-1.454-0.321-1.946-0.881l-10.324-11.76c-1.069-1.217-1.554-2.839-1.331-4.443c2.152-15.47,7.25-52.11,8.18-58.795
		l-7.012-16.6c-0.721-1.707,0.535-3.597,2.385-3.597h20.096c1.852,0,3.105,1.893,2.385,3.597l-7.012,16.6
		c1.041,7.485,7.224,51.922,8.18,58.795C129.904,210.796,129.417,212.418,128.349,213.635z"/>
	<path id="XMLID_1077_" d="M280.947,439.68c0,11.075,8.978,20.052,20.052,20.052c11.074,0,20.052-8.978,20.052-20.052V323.571
		h-40.104V439.68z"/>
	<path id="XMLID_1078_" d="M329.708,439.68c0,11.075,8.978,20.052,20.052,20.052c11.074,0,20.052-8.978,20.052-20.052V323.571
		h-40.104V439.68z"/>
	<path id="XMLID_1096_" d="M428.535,278.918L409.831,157.21c-0.846-21.049-18.286-37.947-39.512-37.947h-9.989
		c-3.307,5.681-23.715,40.742-26.668,45.816l-3.171-22.794l6.593-15.608c0.678-1.604-0.503-3.382-2.243-3.382h-18.896
		c-1.742,0-2.92,1.78-2.243,3.382l6.593,15.608l-3.178,22.841c-2.981-5.122-23.392-40.188-26.695-45.863h-9.989
		c-21.344,0-38.858,17.083-39.524,38.294l-14.211,121.965c-1.154,9.903,6.576,18.646,16.618,18.646
		c8.364,0,15.586-6.268,16.577-14.778c13.471-115.59,14.409-123.23,14.416-124.613c0.003-0.519,0.071-1.023,0.196-1.504
		c0.317-1.217,1.51-1.992,2.751-1.785c1.241,0.207,2.117,1.327,2.022,2.581L268.54,300.957c-0.085,1.126,0.304,2.238,1.072,3.066
		c0.768,0.828,1.847,1.299,2.977,1.299h105.21c1.13,0,2.209-0.471,2.977-1.299c0.768-0.828,1.157-1.94,1.072-3.066l-10.727-142.741
		c-0.101-1.349,0.854-2.548,2.192-2.75c1.337-0.202,2.607,0.66,2.907,1.979c0.094,0.412,0.169,0.856,0.224,1.333
		c0.21,1.819,1.162,8.773,19.059,125.217c1.404,9.13,9.943,15.38,19.054,13.978C423.679,296.571,429.937,288.04,428.535,278.918z
		 M325.194,275.615c-3.78,0-6.844-3.064-6.844-6.844s3.064-6.844,6.844-6.844c3.779,0,6.844,3.064,6.844,6.844
		S328.973,275.615,325.194,275.615z M325.194,237.747c-3.78,0-6.844-3.064-6.844-6.843c0-3.78,3.064-6.843,6.844-6.843
		c3.779,0,6.844,3.064,6.844,6.843C332.037,234.683,328.973,237.747,325.194,237.747z M325.194,199.88
		c-3.78,0-6.844-3.064-6.844-6.843c0-3.78,3.064-6.844,6.844-6.844c3.779,0,6.844,3.064,6.844,6.844
		C332.037,196.816,328.973,199.88,325.194,199.88z"/>
	<path id="XMLID_1100_" d="M325.376,108.225c18.569,0,33.722-14.615,34.59-32.969h-69.18
		C291.654,93.61,306.807,108.225,325.376,108.225z"/>
	<path id="XMLID_1101_" d="M355.1,27.815c-0.426-2.485-2.58-4.301-5.101-4.301h-48.428c-2.467,0-4.591,1.741-5.074,4.16
		l-5.753,28.767h69.264L355.1,27.815z"/>
</g>
<g>
</g>
<g>
</g>
<g>
</g>
<g>
</g>
<g>
</g>
<g>
</g>
<g>
</g>
<g>
</g>
<g>
</g>
<g>
</g>
<g>
</g>
<g>
</g>
<g>
</g>
<g>
</g>
<g>
</g>
</svg>
