<svg id="Layer_1" data-name="Layer 1" xmlns="http://www.w3.org/2000/svg" xmlns:xlink="http://www.w3.org/1999/xlink" viewBox="0 0 65 65"><defs><style>.cls-1{opacity:0.9;fill:url(#linear-gradient);}.cls-2,.cls-3,.cls-5,.cls-7{fill:none;}.cls-2,.cls-4{stroke:#2172e8;}.cls-2,.cls-3,.cls-4,.cls-5{stroke-linecap:square;stroke-width:2px;}.cls-2,.cls-3,.cls-4,.cls-5,.cls-7{stroke-miterlimit:10;}.cls-3{stroke:#69a6ff;}.cls-4{fill:#fff;}.cls-5{stroke:#b3d2ff;}.cls-6{fill:#2172e8;}.cls-7{stroke:#f36;stroke-width:1.75px;}</style><linearGradient id="linear-gradient" x1="13.9" y1="66.09" x2="36.73" y2="26.53" gradientUnits="userSpaceOnUse"><stop offset="0" stop-color="#a7cbff"/><stop offset="0.06" stop-color="#afd0ff" stop-opacity="0.91"/><stop offset="0.2" stop-color="#c4dcff" stop-opacity="0.67"/><stop offset="0.35" stop-color="#d6e7ff" stop-opacity="0.46"/><stop offset="0.5" stop-color="#e5f0ff" stop-opacity="0.3"/><stop offset="0.64" stop-color="#f0f6ff" stop-opacity="0.17"/><stop offset="0.77" stop-color="#f8fbff" stop-opacity="0.08"/><stop offset="0.89" stop-color="#fdfeff" stop-opacity="0.02"/><stop offset="1" stop-color="#fff" stop-opacity="0"/></linearGradient></defs><path class="cls-1" d="M7.73,30.6H43.79a0,0,0,0,1,0,0V59.73A2.79,2.79,0,0,1,41,62.52H7.73a0,0,0,0,1,0,0V30.6A0,0,0,0,1,7.73,30.6Z"/><path class="cls-2" d="M30.31,62.52H10.74a3,3,0,0,1-3-2.9v-39"/><path class="cls-3" d="M43.87,51.59v8a3,3,0,0,1-3,2.9h0"/><path class="cls-3" d="M18.27,16.13H10.74a3,3,0,0,0-3,2.9"/><path class="cls-3" d="M43.87,30.6V19a3,3,0,0,0-3-2.9H33.33"/><ellipse class="cls-2" cx="43.87" cy="40.59" rx="9.79" ry="9.55"/><line class="cls-4" x1="52.34" y1="47.29" x2="56.86" y2="51.65"/><line class="cls-5" x1="16.39" y1="27.37" x2="30.9" y2="27.37"/><line class="cls-5" x1="16.39" y1="33.71" x2="28.64" y2="33.71"/><path class="cls-6" d="M17.89,50.62l-.08-.83v-.24l-.25,0a3.09,3.09,0,0,1-1.66-.87,2.35,2.35,0,0,1-.65-1.69v-.29l1.56-.08.09.28a1.14,1.14,0,0,0,.51.94,2.17,2.17,0,0,0,1.35.38,1.63,1.63,0,0,0,1.09-.32,1,1,0,0,0,.36-.78.82.82,0,0,0-.23-.58,1.78,1.78,0,0,0-.59-.39c-.23-.11-.61-.26-1.14-.46A9.77,9.77,0,0,1,16.78,45a2.84,2.84,0,0,1-1-.83,2.08,2.08,0,0,1-.4-1.3A2.25,2.25,0,0,1,16,41.28a3,3,0,0,1,1.56-.81l.24,0,0-1.08,1.45-.08.08,1v.24l.24,0a3.08,3.08,0,0,1,1.65.9,2.46,2.46,0,0,1,.64,1.72v.2l-1.57.08-.09-.19a1.3,1.3,0,0,0-.47-1,1.91,1.91,0,0,0-1.28-.4,1.58,1.58,0,0,0-1,.28.9.9,0,0,0-.37.77.88.88,0,0,0,.21.6,1.93,1.93,0,0,0,.62.43c.27.12.69.28,1.24.47a14.75,14.75,0,0,1,1.43.58,2.7,2.7,0,0,1,.93.77,2,2,0,0,1,.41,1.3,2.32,2.32,0,0,1-.65,1.68,3.11,3.11,0,0,1-1.67.82l-.25,0,0,1-.09.08Z"/><polyline class="cls-7" points="38.46 43.82 41.55 40.85 43.15 42.38 48.03 37.68"/><polyline class="cls-7" points="44.57 37.68 48.03 37.68 48.03 41.09"/><rect class="cls-2" x="18.27" y="13.22" width="15.06" height="7.25" rx="1.48"/></svg>