<svg id="Layer_1" data-name="Layer 1" xmlns="http://www.w3.org/2000/svg" xmlns:xlink="http://www.w3.org/1999/xlink" viewBox="0 0 65 65"><defs><style>.cls-1,.cls-2{opacity:0.9;}.cls-1{fill:url(#linear-gradient);}.cls-2{fill:url(#linear-gradient-2);}.cls-3,.cls-4,.cls-7{fill:none;}.cls-3{stroke:#69a6ff;}.cls-3,.cls-4,.cls-6{stroke-linecap:square;stroke-width:2px;}.cls-3,.cls-4,.cls-6,.cls-7{stroke-miterlimit:10;}.cls-4,.cls-6{stroke:#2172e8;}.cls-5{fill:#2172e8;}.cls-6{fill:#fff;}.cls-7{stroke:#f36;stroke-width:1.75px;}</style><linearGradient id="linear-gradient" x1="-11289.43" y1="6694.29" x2="-11289.43" y2="6684.03" gradientTransform="translate(11298.12 -6670.79)" gradientUnits="userSpaceOnUse"><stop offset="0" stop-color="#c3dbff"/><stop offset="0.17" stop-color="#c4dbff" stop-opacity="0.99"/><stop offset="0.3" stop-color="#c6ddff" stop-opacity="0.95"/><stop offset="0.42" stop-color="#cadfff" stop-opacity="0.89"/><stop offset="0.53" stop-color="#cfe2ff" stop-opacity="0.8"/><stop offset="0.64" stop-color="#d6e7ff" stop-opacity="0.68"/><stop offset="0.74" stop-color="#dfecff" stop-opacity="0.53"/><stop offset="0.84" stop-color="#e9f2ff" stop-opacity="0.36"/><stop offset="0.93" stop-color="#f5f9ff" stop-opacity="0.17"/><stop offset="1" stop-color="#fff" stop-opacity="0"/></linearGradient><linearGradient id="linear-gradient-2" x1="-11311.89" y1="6694.29" x2="-11311.89" y2="6674.32" gradientTransform="translate(11343.04 -6661.08)" gradientUnits="userSpaceOnUse"><stop offset="0" stop-color="#cadfff" stop-opacity="0.89"/><stop offset="0.06" stop-color="#cfe2ff" stop-opacity="0.81"/><stop offset="0.25" stop-color="#ddebff" stop-opacity="0.57"/><stop offset="0.44" stop-color="#e9f2ff" stop-opacity="0.36"/><stop offset="0.61" stop-color="#f3f8ff" stop-opacity="0.21"/><stop offset="0.77" stop-color="#f9fcff" stop-opacity="0.09"/><stop offset="0.9" stop-color="#fefeff" stop-opacity="0.02"/><stop offset="1" stop-color="#fff" stop-opacity="0"/></linearGradient></defs><path class="cls-1" d="M2.65,13.24H14.72a0,0,0,0,1,0,0v4.32A5.94,5.94,0,0,1,8.78,23.5H8.59a5.94,5.94,0,0,1-5.94-5.94V13.24A0,0,0,0,1,2.65,13.24Z" transform="translate(17.37 36.74) rotate(180)"/><path class="cls-2" d="M14.64,13.24h33a0,0,0,0,1,0,0v20a0,0,0,0,1,0,0H20.58a5.94,5.94,0,0,1-5.94-5.94v-14A0,0,0,0,1,14.64,13.24Z" transform="translate(62.29 46.44) rotate(180)"/><polyline class="cls-3" points="47.61 51.4 47.61 56.77 42.1 62.11 36.62 56.8 31.11 62.11 25.88 57.04"/><path class="cls-3" d="M9.61,13.23h32a5.91,5.91,0,0,1,6,5.81v10.9"/><path class="cls-4" d="M8.64,13.23a5.91,5.91,0,0,0-6,5.81v3.13h7.49"/><path class="cls-4" d="M8.64,13.23a5.92,5.92,0,0,1,6,5.81V56.13l6.16,6"/><line class="cls-3" x1="23.15" y1="21.59" x2="37.59" y2="21.59"/><line class="cls-3" x1="23.15" y1="27.94" x2="35.34" y2="27.94"/><path class="cls-5" d="M24.64,44.59l-.08-.84v-.24l-.24,0a3,3,0,0,1-1.66-.87A2.32,2.32,0,0,1,22,40.9v-.29l1.55-.08.09.28a1.18,1.18,0,0,0,.5.95,2.25,2.25,0,0,0,1.35.37,1.66,1.66,0,0,0,1.08-.31A1,1,0,0,0,27,41a.81.81,0,0,0-.22-.58,1.78,1.78,0,0,0-.59-.39c-.23-.11-.6-.26-1.13-.46A9.62,9.62,0,0,1,23.54,39a3,3,0,0,1-1-.84,2,2,0,0,1-.4-1.3,2.29,2.29,0,0,1,.61-1.62,3,3,0,0,1,1.55-.81l.25-.05,0-1.08L26,33.21l.07.95v.24l.24.05a3,3,0,0,1,1.64.9,2.48,2.48,0,0,1,.65,1.73v.19L27,37.36l-.09-.19a1.27,1.27,0,0,0-.47-1,1.82,1.82,0,0,0-1.27-.41,1.58,1.58,0,0,0-1,.28.92.92,0,0,0-.37.78.87.87,0,0,0,.22.6,1.92,1.92,0,0,0,.62.42,12,12,0,0,0,1.22.48,14.75,14.75,0,0,1,1.43.58,2.9,2.9,0,0,1,.93.77,2.06,2.06,0,0,1,.4,1.3A2.34,2.34,0,0,1,28,42.66a3,3,0,0,1-1.67.82l-.24.05v1l-.08.08Z"/><ellipse class="cls-4" cx="49.02" cy="40.59" rx="9.74" ry="9.56"/><line class="cls-6" x1="57.44" y1="47.3" x2="61.94" y2="51.66"/><polyline class="cls-7" points="43.63 43.83 46.71 40.84 48.29 42.38 53.15 37.67"/><polyline class="cls-7" points="49.57 37.67 53.15 37.67 53.15 41.62"/></svg>