<?xml version="1.0" encoding="UTF-8" standalone="no"?>
<!-- Created with Inkscape (http://www.inkscape.org/) -->

<svg
   xmlns:dc="http://purl.org/dc/elements/1.1/"
   xmlns:cc="http://creativecommons.org/ns#"
   xmlns:rdf="http://www.w3.org/1999/02/22-rdf-syntax-ns#"
   xmlns:svg="http://www.w3.org/2000/svg"
   xmlns="http://www.w3.org/2000/svg"
   xmlns:sodipodi="http://sodipodi.sourceforge.net/DTD/sodipodi-0.dtd"
   xmlns:inkscape="http://www.inkscape.org/namespaces/inkscape"
   width="70mm"
   height="70mm"
   viewBox="0 0 248.03149 248.03149"
   id="svg4526"
   version="1.1"
   inkscape:version="0.91 r13725"
   sodipodi:docname="user_proces.svg">
  <defs
     id="defs4528" />
  <sodipodi:namedview
     id="base"
     pagecolor="#ffffff"
     bordercolor="#666666"
     borderopacity="1.0"
     inkscape:pageopacity="0.0"
     inkscape:pageshadow="2"
     inkscape:zoom="0.7"
     inkscape:cx="-181.32571"
     inkscape:cy="94.987427"
     inkscape:document-units="px"
     inkscape:current-layer="g4174"
     showgrid="false"
     inkscape:window-width="1536"
     inkscape:window-height="801"
     inkscape:window-x="-8"
     inkscape:window-y="-8"
     inkscape:window-maximized="1" />
  <metadata
     id="metadata4531">
    <rdf:RDF>
      <cc:Work
         rdf:about="">
        <dc:format>image/svg+xml</dc:format>
        <dc:type
           rdf:resource="http://purl.org/dc/dcmitype/StillImage" />
        <dc:title></dc:title>
      </cc:Work>
    </rdf:RDF>
  </metadata>
  <g
     inkscape:label="Laag 1"
     inkscape:groupmode="layer"
     id="layer1"
     transform="translate(0,-804.33071)">
    <path
       style="opacity:1;fill:#030904;fill-opacity:1;fill-rule:nonzero;stroke:#000000;stroke-width:0.50507629;stroke-opacity:1"
       d="m 69.280583,1037.0027 c -2.2224,-0.2267 -4.7225,-0.6821 -5.5559,-1.012 -0.8334,-0.3299 -9.3384,-2.8569 -18.9001,-5.6157 -9.5617,-2.7588 -17.4523,-5.0834 -17.5347,-5.1657 -0.2391,-0.2392 2.2788,-42.51158 2.8639,-48.08135 2.2676,-21.58406 6.0483,-32.16101 14.8649,-41.58634 7.5909,-8.11487 14.9224,-11.77177 27.5448,-13.73911 5.5107,-0.85889 39.443297,-1.23111 47.620597,-0.52237 13.0001,1.12673 21.3056,3.10399 29.1231,6.93322 3.9457,1.93271 5.526,3.0883 9.1422,6.68524 9.4197,9.36932 13.7657,22.358 15.8544,47.38281 1.1656,13.96551 2.4884,42.5971 1.9903,43.0793 -0.9176,0.8884 -17.7367,5.5971 -23.3654,6.5414 -20.4406,3.4292 -70.257497,6.467 -83.648097,5.1006 z"
       id="path4293-4"
       inkscape:connector-curvature="0" />
    <ellipse
       style="opacity:1;fill:#000700;fill-opacity:1;fill-rule:nonzero;stroke:#000000;stroke-opacity:1"
       id="path4295-9"
       cx="99.819122"
       cy="877.38922"
       rx="40.658642"
       ry="38.327599" />
    <ellipse
       style="opacity:1;fill:#666666;fill-opacity:1;fill-rule:nonzero;stroke:#ffffff;stroke-width:7.51900005;stroke-miterlimit:4;stroke-dasharray:none;stroke-opacity:1"
       id="path4344-6"
       cx="187.79056"
       cy="952.69141"
       rx="52.857143"
       ry="50.714287" />
    <g
       id="g4174"
       transform="matrix(0.5,0,0,0.5,167.25712,464.89296)">
      <g
         id="g4178"
         transform="matrix(0.75019599,0.66121553,-0.66121553,0.75019599,371.17755,-27.461302)">
        <path
           id="path2987"
           style="fill:#f2f2f2"
           inkscape:connector-curvature="0"
           d="m 365.10854,929.81751 c -1.4336,0.11093 -3.2466,0.73862 -5.5938,2.0938 -15.022,8.6728 6.6103,12.666 -2.0625,27.688 -8.673,15.02 -22.938,-1.72 -22.938,15.62 0,17.346 14.265,0.60321 22.938,15.625 8.6728,15.02199 -12.959,19.01499 2.0625,27.68799 15.022,8.6728 7.6543,-12.062 25,-12.062 17.3457,0 9.9782,20.735 25,12.062 15.022,-8.6728 -6.6103,-12.666 2.0625,-27.68799 8.6728,-15.022 22.938,1.7207 22.938,-15.625 0,-17.3457 -14.265,-0.60321 -22.938,-15.625 -8.6728,-15.022 12.959,-19.015 -2.0625,-27.688 -15.022,-8.6728 -7.6543,12.062 -25,12.062 -14.635,0 -11.665,-14.755 -19.406,-14.156 z m 19.406,25.4 c 11.046,0 20,8.9543 20,20 0,11.0457 -8.9543,20 -20,20 -11.0457,0 -20,-8.9543 -20,-20 0,-11.0457 8.9543,-20 20,-20 z" />
        <path
           id="path2992"
           d="m 430.35454,953.00751 c -0.88956,0.60965 -1.8317,1.6972 -2.8481,3.4576 -6.5046,11.266 9.0432,5.7478 9.0432,18.757 -1e-5,13.009 -15.544,7.484 -9.039,18.75 6.5046,11.26599 9.4914,-4.9574 20.758,1.5472 11.266,6.50459 -1.2868,17.20999 11.722,17.20999 13.0088,0 0.4482,-10.705 11.715,-17.20999 11.266,-6.5046 14.257,9.72619 20.761,-1.5402 6.5046,-11.266 -9.0432,-5.7478 -9.0432,-18.757 10e-6,-13.009 15.544,-7.484 9.039,-18.75 -6.5046,-11.266 -9.4914,4.9574 -20.758,-1.5472 -11.266,-6.5046 1.2868,-17.21 -11.722,-17.21 -13.0088,0 -0.4482,10.705 -11.715,17.21 -9.506,5.4883 -13.11,-5.2096 -17.913,-1.9174 z m 22.132,9.2245 c 7.1744,-4.1421 16.348,-1.684 20.49,5.4904 4.1421,7.1744 1.684,16.348 -5.4904,20.49 -7.1744,4.1421 -16.348,1.684 -20.49,-5.4904 -4.1421,-7.1744 -1.684,-16.348 5.4904,-20.49 z"
           style="fill:#cccccc"
           inkscape:connector-curvature="0" />
      </g>
    </g>
  </g>
</svg>
